<svg data-v-423bf9ae="" xmlns="http://www.w3.org/2000/svg" viewBox="0 0 324 90" class="iconLeft"><!----><!----><!----><g data-v-423bf9ae="" id="81530718-afde-4f08-8ed2-2487b6d0f4e9" fill="black" transform="matrix(4.569687366264075,0,0,4.569687366264075,107.12109450941573,-8.533889895222174)"><path d="M4.23 7.90L4.23 7.90Q5.17 7.90 6.01 8.32L6.01 8.32L6.01 8.32Q6.85 8.75 7.42 9.53L7.42 9.53L6.33 10.88L6.33 10.88Q5.98 9.90 5.29 9.25L5.29 9.25L5.29 9.25Q4.59 8.61 3.64 8.61L3.64 8.61L3.64 8.61Q2.73 8.61 2.23 9.13L2.23 9.13L2.23 9.13Q1.72 9.65 1.72 10.46L1.72 10.46L1.72 10.46Q1.72 11.21 2.09 11.72L2.09 11.72L2.09 11.72Q2.45 12.22 2.97 12.53L2.97 12.53L2.97 12.53Q3.49 12.84 4.37 13.23L4.37 13.23L4.37 13.23Q5.21 13.61 5.69 13.89L5.69 13.89L5.69 13.89Q6.17 14.17 6.51 14.62L6.51 14.62L6.51 14.62Q6.85 15.06 6.85 15.72L6.85 15.72L6.85 15.72Q6.86 16.94 6.06 17.60L6.06 17.60L6.06 17.60Q5.26 18.26 3.99 18.26L3.99 18.26L3.99 18.26Q3.05 18.26 2.21 17.89L2.21 17.89L2.21 17.89Q1.36 17.51 0.85 16.76L0.85 16.76L1.95 15.54L1.95 15.54Q2.42 16.66 3.11 17.13L3.11 17.13L3.11 17.13Q3.79 17.60 4.44 17.60L4.44 17.60L4.44 17.60Q5.04 17.60 5.47 17.27L5.47 17.27L5.47 17.27Q5.89 16.94 5.89 16.41L5.89 16.41L5.89 16.41Q5.89 15.92 5.59 15.55L5.59 15.55L5.59 15.55Q5.29 15.18 4.84 14.92L4.84 14.92L4.84 14.92Q4.40 14.66 3.63 14.31L3.63 14.31L3.63 14.31Q2.65 13.86 2.06 13.50L2.06 13.50L2.06 13.50Q1.47 13.13 1.05 12.54L1.05 12.54L1.05 12.54Q0.63 11.94 0.63 11.09L0.63 11.09L0.63 11.09Q0.63 10.19 1.10 9.46L1.10 9.46L1.10 9.46Q1.57 8.72 2.39 8.31L2.39 8.31L2.39 8.31Q3.22 7.90 4.23 7.90L4.23 7.90ZM10.04 5.15L10.04 15.37L10.14 15.37L10.14 15.37Q10.54 13.78 11.32 12.37L11.32 12.37L11.32 12.37Q12.10 10.96 13.20 10.96L13.20 10.96L13.20 10.96Q13.65 10.96 13.92 11.31L13.92 11.31L13.92 11.31Q14.18 11.66 14.18 12.17L14.18 12.17L14.18 12.17Q14.18 13.02 13.45 13.80L13.45 13.80L13.45 13.80Q12.73 14.59 11.79 15.15L11.79 15.15L11.79 15.15Q11.86 15.25 12.27 15.86L12.27 15.86L12.27 15.86Q12.68 16.46 13.17 16.94L13.17 16.94L13.17 16.94Q13.66 17.42 14.01 17.42L14.01 17.42L14.01 17.42Q14.52 17.42 14.92 16.94L14.92 16.94L15.15 17.18L15.15 17.18Q14.84 17.65 14.30 17.94L14.30 17.94L14.30 17.94Q13.76 18.23 13.24 18.23L13.24 18.23L13.24 18.23Q12.64 18.23 12.16 17.78L12.16 17.78L12.16 17.78Q11.68 17.33 11.12 16.55L11.12 16.55L11.12 16.55Q10.67 15.93 10.44 15.75L10.44 15.75L10.32 15.85L10.32 15.85Q10.22 16.17 10.15 16.80L10.15 16.80L10.15 16.80Q10.08 17.43 10.07 17.92L10.07 17.92L8.78 18.28L8.78 5.68L10.04 5.15ZM12.33 12.47L12.33 12.47Q11.91 12.47 11.49 13.18L11.49 13.18L11.49 13.18Q11.07 13.89 10.63 14.95L10.63 14.95L10.63 14.95Q10.40 15.47 10.37 15.50L10.37 15.50L10.37 15.50Q11.31 15.11 12.07 14.42L12.07 14.42L12.07 14.42Q12.82 13.73 12.82 13.03L12.82 13.03L12.82 13.03Q12.82 12.85 12.69 12.66L12.69 12.66L12.69 12.66Q12.56 12.47 12.33 12.47L12.33 12.47ZM17.89 6.41L17.42 9.67L16.95 9.84L16.38 6.93L17.89 6.41ZM17.88 11.14L17.88 16.91L17.88 16.91Q17.88 17.12 17.98 17.26L17.98 17.26L17.98 17.26Q18.09 17.39 18.28 17.39L18.28 17.39L18.28 17.39Q18.44 17.39 18.63 17.25L18.63 17.25L18.63 17.25Q18.82 17.11 19.01 16.84L19.01 16.84L19.24 17.05L19.24 17.05Q18.91 17.65 18.46 17.91L18.46 17.91L18.46 17.91Q18.00 18.16 17.63 18.16L17.63 18.16L17.63 18.16Q17.12 18.16 16.85 17.84L16.85 17.84L16.85 17.84Q16.58 17.51 16.58 16.74L16.58 16.74L16.58 11.65L17.88 11.14ZM22.02 5.15L22.02 16.91L22.02 16.91Q22.02 17.08 22.12 17.23L22.12 17.23L22.12 17.23Q22.22 17.39 22.46 17.39L22.46 17.39L22.46 17.39Q22.65 17.39 22.87 17.21L22.87 17.21L22.87 17.21Q23.09 17.04 23.20 16.84L23.20 16.84L23.44 17.05L23.44 17.05Q23.20 17.51 22.78 17.84L22.78 17.84L22.78 17.84Q22.36 18.16 21.94 18.16L21.94 18.16L21.94 18.16Q20.76 18.16 20.76 16.74L20.76 16.74L20.76 5.68L22.02 5.15ZM26.21 5.15L26.21 16.91L26.21 16.91Q26.21 17.08 26.31 17.23L26.31 17.23L26.31 17.23Q26.40 17.39 26.64 17.39L26.64 17.39L26.64 17.39Q26.84 17.39 27.05 17.21L27.05 17.21L27.05 17.21Q27.27 17.04 27.38 16.84L27.38 16.84L27.62 17.05L27.62 17.05Q27.38 17.51 26.96 17.84L26.96 17.84L26.96 17.84Q26.54 18.16 26.12 18.16L26.12 18.16L26.12 18.16Q24.95 18.16 24.95 16.74L24.95 16.74L24.95 5.68L26.21 5.15ZM30.41 6.41L29.93 9.67L29.47 9.84L28.90 6.93L30.41 6.41ZM30.39 11.14L30.39 16.91L30.39 16.91Q30.39 17.12 30.50 17.26L30.50 17.26L30.50 17.26Q30.60 17.39 30.80 17.39L30.80 17.39L30.80 17.39Q30.95 17.39 31.14 17.25L31.14 17.25L31.14 17.25Q31.33 17.11 31.53 16.84L31.53 16.84L31.75 17.05L31.75 17.05Q31.43 17.65 30.98 17.91L30.98 17.91L30.98 17.91Q30.52 18.16 30.14 18.16L30.14 18.16L30.14 18.16Q29.64 18.16 29.37 17.84L29.37 17.84L29.37 17.84Q29.09 17.51 29.09 16.74L29.09 16.74L29.09 11.65L30.39 11.14ZM38.05 10.96L38.05 10.96Q38.61 10.96 38.78 11.38L38.78 11.38L38.78 11.38Q38.95 11.79 38.95 12.52L38.95 12.52L38.95 12.95L38.95 16.91L38.95 16.91Q38.95 17.07 39.05 17.23L39.05 17.23L39.05 17.23Q39.14 17.39 39.33 17.39L39.33 17.39L39.33 17.39Q39.56 17.39 39.73 17.23L39.73 17.23L39.73 17.23Q39.90 17.08 40.07 16.84L40.07 16.84L40.28 17.05L40.28 17.05Q40.07 17.50 39.65 17.83L39.65 17.83L39.65 17.83Q39.23 18.16 38.85 18.16L38.85 18.16L38.85 18.16Q38.29 18.16 37.98 17.81L37.98 17.81L37.98 17.81Q37.67 17.46 37.67 16.74L37.67 16.74L37.67 13.03L37.67 13.03Q37.67 12.82 37.63 12.68L37.63 12.68L37.63 12.68Q37.59 12.54 37.42 12.54L37.42 12.54L37.42 12.54Q36.85 12.54 36.25 13.65L36.25 13.65L36.25 13.65Q35.64 14.76 35.22 16.12L35.22 16.12L35.22 16.12Q34.79 17.49 34.79 17.92L34.79 17.92L33.57 18.28L33.57 12.29L33.57 12.29Q33.57 12.10 33.47 11.94L33.47 11.94L33.47 11.94Q33.36 11.77 33.17 11.77L33.17 11.77L33.17 11.77Q32.83 11.77 32.44 12.38L32.44 12.38L32.23 12.15L32.23 12.15Q32.41 11.65 32.83 11.30L32.83 11.30L32.83 11.30Q33.25 10.96 33.67 10.96L33.67 10.96L33.67 10.96Q34.26 10.96 34.55 11.24L34.55 11.24L34.55 11.24Q34.83 11.52 34.83 12.01L34.83 12.01L34.83 15.69L34.89 15.69L34.89 15.69Q35.27 14.45 35.62 13.52L35.62 13.52L35.62 13.52Q35.97 12.60 36.60 11.78L36.60 11.78L36.60 11.78Q37.23 10.96 38.05 10.96L38.05 10.96ZM45.12 10.96L45.12 10.96Q45.88 10.96 46.38 11.37L46.38 11.37L46.38 11.37Q46.89 11.77 46.89 12.57L46.89 12.57L46.89 12.57Q46.89 13.22 46.19 14.01L46.19 14.01L46.19 14.01Q45.50 14.80 44.57 15.46L44.57 15.46L44.57 15.46Q43.64 16.11 42.98 16.38L42.98 16.38L42.98 16.38Q43.33 16.94 43.78 17.16L43.78 17.16L43.78 17.16Q44.23 17.37 44.83 17.37L44.83 17.37L44.83 17.37Q45.50 17.37 46.17 17.03L46.17 17.03L46.17 17.03Q46.83 16.69 47.26 16.14L47.26 16.14L47.43 16.44L47.43 16.44Q46.75 17.32 45.98 17.79L45.98 17.79L45.98 17.79Q45.21 18.26 44.09 18.26L44.09 18.26L44.09 18.26Q43.23 18.26 42.56 17.84L42.56 17.84L42.56 17.84Q41.89 17.42 41.51 16.71L41.51 16.71L41.51 16.71Q41.13 16.00 41.13 15.18L41.13 15.18L41.13 15.18Q41.13 14.14 41.69 13.16L41.69 13.16L41.69 13.16Q42.25 12.18 43.18 11.57L43.18 11.57L43.18 11.57Q44.10 10.96 45.12 10.96L45.12 10.96ZM44.39 11.84L44.39 11.84Q43.78 11.84 43.30 12.24L43.30 12.24L43.30 12.24Q42.81 12.63 42.54 13.24L42.54 13.24L42.54 13.24Q42.27 13.86 42.27 14.52L42.27 14.52L42.27 14.52Q42.27 15.39 42.67 16.00L42.67 16.00L42.67 16.00Q43.26 15.74 43.95 15.20L43.95 15.20L43.95 15.20Q44.63 14.66 45.11 14.03L45.11 14.03L45.11 14.03Q45.58 13.40 45.58 12.88L45.58 12.88L45.58 12.88Q45.58 11.84 44.39 11.84L44.39 11.84Z"></path></g><!----><g data-v-423bf9ae="" id="44c0ef2a-b529-4ed7-95af-c3d878ce0d2d" transform="matrix(2.8125,0,0,2.8125,0,0)" stroke="none" fill="black"><path d="M0 16.024L15.976 32 32 15.976 16.024 0 0 16.024zm15.989 7.323l-7.336-7.336 14.694-.022-7.358 7.358z"></path></g><!----></svg>